<?xml version="1.0" encoding="UTF-8"?>
<svg width="300" height="300" version="1.1" viewBox="0 0 79.375 79.375" xmlns="http://www.w3.org/2000/svg">
 <g>
  <path d="m26.161.5654c-7.1353-.17963 1.8615 5.6797-5.9454 8.2868-8.0587 2.6912-3.8873-8.1469-10.303-2.5766-6.4154 5.5703 4.9008 2.9613 1.1054 10.563-3.7954 7.6013-8.5093-3.0119-9.1069 5.4632-.59761 8.4752 5.559-1.3718 8.2501 6.6869 2.6912 8.0587-8.1469 3.8873-2.5766 10.303 5.5703 6.4154 2.9613-4.9008 10.563-1.1054 7.6013 3.7954-3.0119 8.5098 5.4632 9.1075 8.4752.59761-1.3718-5.5595 6.6869-8.2507 8.0587-2.6912 3.8873 8.1469 10.303 2.5766 6.4154-5.5703-4.9008-2.9613-1.1054-10.563 3.7954-7.6013 8.5098 3.0125 9.1075-5.4627.59761-8.4752-5.5595 1.3713-8.2507-6.6874-2.6912-8.0587 8.1469-3.8873 2.5766-10.303-5.5703-6.4154-2.9613 4.9008-10.563 1.1054-7.6013-3.7954 3.0125-8.5093-5.4627-9.1069-.26485-.018675-.5119-.030896-.74207-.03669zm-1.0656 19.613a4.2095 4.2095 0 012.0831.53692 4.2095 4.2095 0 011.6159 5.7294 4.2095 4.2095 0 01-5.7294 1.6164l-.000516-.000516a4.2095 4.2095 0 01-1.6159-5.7294 4.2095 4.2095 0 013.6468-2.1528z" style="fill:#ff2a2a;stroke-width:0">
 <animateTransform
 id="engrenagem1"
 attributeName="transform"
 type="rotate"
 from="0 25.264 23.945"
 to="90 25.264 23.945"
 begin="0s;engrenagem2.end"
 dur="0.5"
  />
  </path>
  <path d="m57.031 25.074c-7.1353-.17963 1.8615 5.6797-5.9454 8.2868-8.0587 2.6912-3.8873-8.1469-10.303-2.5766-6.4154 5.5703 4.9008 2.9613 1.1054 10.563-3.7954 7.6013-8.5093-3.0119-9.1069 5.4632-.59761 8.4752 5.559-1.3718 8.2501 6.6869 2.6912 8.0587-8.1469 3.8873-2.5766 10.303s2.9613-4.9008 10.563-1.1054c7.6013 3.7954-3.0119 8.5098 5.4632 9.1075 8.4752.59761-1.3718-5.5595 6.6869-8.2507 8.0587-2.6912 3.8873 8.1469 10.303 2.5766 6.4154-5.5703-4.9008-2.9613-1.1054-10.563 3.7954-7.6013 8.5098 3.0125 9.1075-5.4627.59761-8.4752-5.5595 1.3713-8.2507-6.6874-2.6912-8.0587 8.1469-3.8873 2.5766-10.303-5.5703-6.4154-2.9613 4.9008-10.563 1.1054-7.6013-3.7954 3.0125-8.5093-5.4627-9.1069-.26485-.01868-.5119-.0309-.74207-.03669zm-1.0656 19.613a4.2095 4.2095 0 012.0831.53692 4.2095 4.2095 0 011.6159 5.7294 4.2095 4.2095 0 01-5.7294 1.6164l-.000517-.000516a4.2095 4.2095 0 01-1.6159-5.7294 4.2095 4.2095 0 013.6468-2.1528z" style="fill:#ff2a2a;stroke-width:0">
     <animateTransform
 id="engrenagem2"
 attributeName="transform"
 from="0 56.220 48.421"
 type="rotate"
 to="-90 56.220 48.421"
 begin="engrenagem1.begin"
 dur="0.5"
  />
  </path>
 </g>
</svg>
